<?xml version="1.0" encoding="UTF-8" standalone="no"?>
<svg
   width="57"
   height="56"
   viewBox="0 0 57 56"
   fill="none"
   version="1.1"
   id="svg1"
   sodipodi:docname="curseforge_vector.svg"
   inkscape:version="1.3.2 (091e20e, 2023-11-25, custom)"
   xmlns:inkscape="http://www.inkscape.org/namespaces/inkscape"
   xmlns:sodipodi="http://sodipodi.sourceforge.net/DTD/sodipodi-0.dtd"
   xmlns="http://www.w3.org/2000/svg"
   xmlns:svg="http://www.w3.org/2000/svg">
  <defs
     id="defs1" />
  <sodipodi:namedview
     id="namedview1"
     pagecolor="#ffffff"
     bordercolor="#000000"
     borderopacity="0.25"
     inkscape:showpageshadow="2"
     inkscape:pageopacity="0.0"
     inkscape:pagecheckerboard="0"
     inkscape:deskcolor="#d1d1d1"
     inkscape:zoom="3.6294643"
     inkscape:cx="8.1279213"
     inkscape:cy="13.913899"
     inkscape:window-width="1920"
     inkscape:window-height="1009"
     inkscape:window-x="-8"
     inkscape:window-y="-8"
     inkscape:window-maximized="1"
     inkscape:current-layer="svg1" />
  <!-- Base circle with transparent fill and stroke -->
  <circle
     cx="28"
     cy="28"
     r="20"
     fill="transparent"
     stroke="#F16436"
     stroke-width="2"
     id="circle1" />
  <!-- Centered flame -->
  <g
     transform="matrix(1.0063045,0,0,0.88470793,37.457737,43.934357)"
     id="g1">
    <path
       d="m 0.6,14 c 0.42,0.223 0.86,-0.26 0.604,-0.658 -1.39,-2.164 -2.71,-5.806 -0.61,-10.497 3.499,-7.822 5.628,-11.873 5.628,-11.873 0,0 1.132,4.728 4.202,8.931 2.954,4.045 4.571,9.133 1.964,13.372 -0.245,0.398 0.187,0.867 0.603,0.654 3.227,-1.65 6.846,-4.962 7.255,-11.551 0.15,-2.014 -0.075,-4.832 -1.204,-8.39 -1.452,-4.508 -3.237,-6.612 -4.27,-7.515 -0.309,-0.27 -0.79,-0.031 -0.764,0.379 0.301,4.865 -1.529,6.099 -2.571,3.317 -0.416,-1.111 -0.659,-3.033 -0.659,-5.374 0,-3.897 -1.131,-7.908 -3.623,-11.167 -0.648,-0.848 -1.406,-1.64 -2.277,-2.315 -0.315,-0.244 -0.771,0.001 -0.743,0.399 0.191,2.642 0.018,10.212 -6.624,19.256 -6.022,8.39 -3.688,14.833 -2.86,16.578 C -3.733,10.85 -1.597,12.82 0.6,14 Z"
       fill="transparent"
       stroke="#f16436"
       stroke-width="3"
       id="path1"
       transform="matrix(0.7,0,0,0.7,-14,-11)" />
  </g>
</svg>
